<svg version="1.1" id="Layer_1" xmlns="http://www.w3.org/2000/svg" xmlns:xlink="http://www.w3.org/1999/xlink" x="0px" y="0px"
	 width="100%" viewBox="0 0 2560 2560" enable-background="new 0 0 2560 2560" xml:space="preserve">
<path fill="#000000" opacity="1.000000" stroke="none" 
	d="
M1556.000000,2562.000000 
	C1037.333374,2562.000000 519.666687,2562.000000 2.000000,2562.000000 
	C2.000000,1708.666626 2.000000,855.333313 2.000000,2.000000 
	C855.333313,2.000000 1708.666626,2.000000 2562.000000,2.000000 
	C2562.000000,855.333313 2562.000000,1708.666626 2562.000000,2562.000000 
	C2227.000000,2562.000000 1892.000000,2562.000000 1556.000000,2562.000000 
M1391.000122,417.669586 
	C1084.426392,417.669586 777.852600,417.669586 470.970947,417.669586 
	C470.970947,795.661621 470.970947,1172.758057 470.970947,1550.790039 
	C597.434387,1550.790039 723.261902,1550.790039 849.229614,1550.790039 
	C849.229614,1676.262451 849.229614,1800.798706 849.229614,1925.265625 
	C836.608154,1927.265381 667.545105,1926.711060 659.957886,1924.494751 
	C659.957886,1862.551514 659.957886,1800.382324 659.957886,1738.374023 
	C596.418457,1738.374023 533.644165,1738.374023 470.810974,1738.374023 
	C470.810974,1864.267212 470.810974,1989.455811 470.810974,2115.127441 
	C1038.063477,2115.127441 1604.837524,2115.127441 2171.751953,2115.127441 
	C2171.751953,1989.121582 2171.751953,1863.657104 2171.751953,1738.408936 
	C2108.732910,1738.408936 2046.301758,1738.408936 1983.174805,1738.408936 
	C1983.174805,1801.350098 1983.174805,1863.553833 1983.174805,1925.681763 
	C1919.665039,1925.681763 1856.860474,1925.681763 1794.098267,1925.681763 
	C1791.941772,1888.190674 1792.989624,1558.694580 1795.465576,1549.980225 
	C1920.750610,1549.980225 2046.251587,1549.980225 2171.631592,1549.980225 
	C2171.631592,1172.134155 2171.631592,795.043335 2171.631592,417.669586 
	C1911.617676,417.669586 1652.308960,417.669586 1391.000122,417.669586 
z"/>
<path fill="#FEFEFE" opacity="1.000000" stroke="none" 
	d="
M1392.000244,417.669586 
	C1652.308960,417.669586 1911.617676,417.669586 2171.631592,417.669586 
	C2171.631592,795.043335 2171.631592,1172.134155 2171.631592,1549.980225 
	C2046.251587,1549.980225 1920.750610,1549.980225 1795.465576,1549.980225 
	C1792.989624,1558.694580 1791.941772,1888.190674 1794.098267,1925.681763 
	C1856.860474,1925.681763 1919.665039,1925.681763 1983.174805,1925.681763 
	C1983.174805,1863.553833 1983.174805,1801.350098 1983.174805,1738.408936 
	C2046.301758,1738.408936 2108.732910,1738.408936 2171.751953,1738.408936 
	C2171.751953,1863.657104 2171.751953,1989.121582 2171.751953,2115.127441 
	C1604.837524,2115.127441 1038.063477,2115.127441 470.810974,2115.127441 
	C470.810974,1989.455811 470.810974,1864.267212 470.810974,1738.374023 
	C533.644165,1738.374023 596.418457,1738.374023 659.957886,1738.374023 
	C659.957886,1800.382324 659.957886,1862.551514 659.957886,1924.494751 
	C667.545105,1926.711060 836.608154,1927.265381 849.229614,1925.265625 
	C849.229614,1800.798706 849.229614,1676.262451 849.229614,1550.790039 
	C723.261902,1550.790039 597.434387,1550.790039 470.970947,1550.790039 
	C470.970947,1172.758057 470.970947,795.661621 470.970947,417.669586 
	C777.852600,417.669586 1084.426392,417.669586 1392.000244,417.669586 
M1446.999878,982.334778 
	C1562.890503,982.334778 1678.781006,982.334778 1795.223145,982.334778 
	C1797.890259,1108.575439 1791.445923,1233.841309 1794.109863,1359.022095 
	C1819.011475,1361.055664 1976.083862,1360.187134 1983.159424,1358.099121 
	C1983.159424,1108.196899 1983.159424,858.337585 1983.159424,608.205933 
	C1919.860962,608.205933 1857.069336,608.205933 1793.555420,608.205933 
	C1793.555420,670.259583 1793.555420,731.777344 1793.555420,793.168884 
	C1781.418823,795.175049 1611.750122,794.708801 1604.009033,792.562927 
	C1604.009033,731.274475 1604.009033,669.773682 1604.009033,608.341919 
	C1415.505127,608.341919 1227.755371,608.341919 1039.300537,608.341919 
	C1039.300537,670.543701 1039.300537,732.071411 1039.300537,793.754028 
	C975.797546,793.754028 913.002930,793.754028 849.491028,793.754028 
	C849.491028,731.663452 849.491028,670.142822 849.491028,608.739136 
	C836.039062,606.683899 667.484314,607.284729 660.883972,609.245972 
	C660.883972,859.131531 660.883972,1108.963135 660.883972,1359.108887 
	C723.894836,1359.108887 786.355591,1359.108887 849.968262,1359.108887 
	C849.318787,1233.463623 848.672302,1108.383911 848.020752,982.334778 
	C1047.897705,982.334778 1246.448730,982.334778 1446.999878,982.334778 
M1039.666626,1868.999878 
	C1039.666626,1887.883667 1039.666626,1906.767456 1039.666626,1925.727417 
	C1228.392944,1925.727417 1416.122192,1925.727417 1603.626831,1925.727417 
	C1603.626831,1800.368408 1603.626831,1675.616577 1603.626831,1550.822754 
	C1415.449463,1550.822754 1227.979126,1550.822754 1039.666626,1550.822754 
	C1039.666626,1656.542480 1039.666626,1761.771118 1039.666626,1868.999878 
M1149.000122,1172.324097 
	C1112.780029,1172.324097 1076.559937,1172.324097 1040.214600,1172.324097 
	C1040.214600,1235.255371 1040.214600,1297.076050 1040.214600,1359.275879 
	C1228.263794,1359.275879 1415.759766,1359.275879 1603.588867,1359.275879 
	C1603.588867,1296.846802 1603.588867,1234.820068 1603.588867,1172.324097 
	C1452.226562,1172.324097 1301.613403,1172.324097 1149.000122,1172.324097 
z"/>
<path fill="#010101" opacity="1.000000" stroke="none" 
	d="
M1445.999756,982.334778 
	C1246.448730,982.334778 1047.897705,982.334778 848.020752,982.334778 
	C848.672302,1108.383911 849.318787,1233.463623 849.968262,1359.108887 
	C786.355591,1359.108887 723.894836,1359.108887 660.883972,1359.108887 
	C660.883972,1108.963135 660.883972,859.131531 660.883972,609.245972 
	C667.484314,607.284729 836.039062,606.683899 849.491028,608.739136 
	C849.491028,670.142822 849.491028,731.663452 849.491028,793.754028 
	C913.002930,793.754028 975.797546,793.754028 1039.300537,793.754028 
	C1039.300537,732.071411 1039.300537,670.543701 1039.300537,608.341919 
	C1227.755371,608.341919 1415.505127,608.341919 1604.009033,608.341919 
	C1604.009033,669.773682 1604.009033,731.274475 1604.009033,792.562927 
	C1611.750122,794.708801 1781.418823,795.175049 1793.555420,793.168884 
	C1793.555420,731.777344 1793.555420,670.259583 1793.555420,608.205933 
	C1857.069336,608.205933 1919.860962,608.205933 1983.159424,608.205933 
	C1983.159424,858.337585 1983.159424,1108.196899 1983.159424,1358.099121 
	C1976.083862,1360.187134 1819.011475,1361.055664 1794.109863,1359.022095 
	C1791.445923,1233.841309 1797.890259,1108.575439 1795.223145,982.334778 
	C1678.781006,982.334778 1562.890503,982.334778 1445.999756,982.334778 
z"/>
<path fill="#000000" opacity="1.000000" stroke="none" 
	d="
M1039.666626,1867.999756 
	C1039.666626,1761.771118 1039.666626,1656.542480 1039.666626,1550.822754 
	C1227.979126,1550.822754 1415.449463,1550.822754 1603.626831,1550.822754 
	C1603.626831,1675.616577 1603.626831,1800.368408 1603.626831,1925.727417 
	C1416.122192,1925.727417 1228.392944,1925.727417 1039.666626,1925.727417 
	C1039.666626,1906.767456 1039.666626,1887.883667 1039.666626,1867.999756 
z"/>
<path fill="#010101" opacity="1.000000" stroke="none" 
	d="
M1150.000244,1172.324097 
	C1301.613403,1172.324097 1452.226562,1172.324097 1603.588867,1172.324097 
	C1603.588867,1234.820068 1603.588867,1296.846802 1603.588867,1359.275879 
	C1415.759766,1359.275879 1228.263794,1359.275879 1040.214600,1359.275879 
	C1040.214600,1297.076050 1040.214600,1235.255371 1040.214600,1172.324097 
	C1076.559937,1172.324097 1112.780029,1172.324097 1150.000244,1172.324097 
z"/>
</svg>